<?xml version="1.0" encoding="iso-8859-1"?>
<!DOCTYPE svg PUBLIC "-//W3C//DTD SVG 1.1//EN" "http://www.w3.org/Graphics/SVG/1.1/DTD/svg11.dtd">
<svg  version="1.1" xmlns="http://www.w3.org/2000/svg" xmlns:xlink="http://www.w3.org/1999/xlink" x="0px" y="0px" width="512px"
	 height="512px" viewBox="0 0 512 512" style="enable-background:new 0 0 512 512;" xml:space="preserve"><g id="afcae5a789ccd549f9c6e2a2f8184d79"><path style="display: inline; fill-rule: evenodd; clip-rule: evenodd;" d="M455.004,283.592c0,0,2.966-59.402-36.643-99.01
		c-63.597-63.597-110.712-37.719-110.712-37.719s-22.848,8.124-39.201,11.353c-2.488-12.768-6.741-24.905-12.476-36.174
		c13.573,2.21,62.802,7.426,101.989-24.554C401.395,62.043,396.141,0.5,396.141,0.5s-1.016,13.83-25.115,22.146
		c-26.434,9.125-58.168-0.278-100.375,30.957c-18.378,13.597-23.935,37.028-25.614,50.455
		c-25.257-35.238-66.522-58.265-113.092-58.265c-4.395,0-7.963,3.564-7.963,7.967c0,4.395,3.568,7.963,7.963,7.963
		c58.802-0.003,108.088,41.433,120.257,96.632c-12.821-3.71-38.853-15.027-38.853-15.027s-52.675-14.771-101.8,18.92
		C53.205,202.258,56.57,280.06,56.57,280.06s-7.55,83.558,54.254,170.213c49.813,69.838,82.485,60.835,82.485,60.835
		s32.864-4.944,53.046-5.896c24.242-1.144,50.687,5.896,50.687,5.896s44.466,9.944,105.18-70.185
		C465.957,356.791,455.004,283.592,455.004,283.592z M136.596,251.765c-12.472,37.99-7.389,73.781-22.584,68.794
		c-15.199-4.99-17.405-39.836-4.933-77.83c12.472-37.993,34.906-64.748,50.105-59.758
		C174.378,187.958,149.067,213.771,136.596,251.765z"></path></g></svg>