<?xml version="1.0" encoding="iso-8859-1"?>
<!DOCTYPE svg PUBLIC "-//W3C//DTD SVG 1.1//EN" "http://www.w3.org/Graphics/SVG/1.1/DTD/svg11.dtd">
<svg  version="1.1" xmlns="http://www.w3.org/2000/svg" xmlns:xlink="http://www.w3.org/1999/xlink" x="0px" y="0px" width="512px"
	 height="512px" viewBox="0 0 512 512" style="enable-background:new 0 0 512 512;" xml:space="preserve"><g id="afcae5a789ccd549f9c6e2a2f818723d"><path style="display: inline; fill-rule: evenodd; clip-rule: evenodd;" d="M124.145,344.705c-8.166-0.457-15.996-0.824-23.727-1.084
		c-56.762-31.674-80.46-78.854-80.46-78.854l14.054-16.55c0,0,15.814-7.531,55.41-2.522c48.478,6.125,102.563,32.26,178.85,3.171
		c85.682-32.667,128.067-141.31,128.067-141.31s4.006-9.813,9.658-14.095c4.94-3.738,11.618-2.019,11.618-2.019l7.513-48.646
		l10.561-2.214l0.305,54.353c-3.607,1.021-7.636,2.926-11.002,6.442c-7.53,7.866-10.91,21.648-11.305,23.336
		c-0.29,1.352-30.486,135.983-122.782,189.22c-49.616,28.621-93.254,32.293-125.731,32.293
		C151.051,346.227,137.373,345.455,124.145,344.705z M374.499,440.473C126.807,564.535,0.5,389.195,0.5,389.195l13.75-22.691
		c0,0,17.638-12.145,66.388-13.76c59.692-1.982,130.018,19.1,216.458-30.762c97.082-55.995,127.224-195.299,127.224-195.299
		s2.939-12.621,8.933-18.877c5.23-5.471,13.623-4.686,13.623-4.686l-0.331-60.16l41.378-15.828l-10.407,80.052
		c0,0,10.126-0.662,18.11,10.815c9.051,13.029,11.437,36.029,11.437,36.029S549.085,353.039,374.499,440.473z M280.811,425.385
		c0,0-77.113,40.643-156.085,1.547c-41.955-20.77-43.234-5.217-3.575,14.412c88.535,43.828,162.427-11.586,162.427-11.586
		C297.968,418.965,296.72,416.996,280.811,425.385z"></path></g></svg>