<?xml version="1.0" encoding="iso-8859-1"?>
<!DOCTYPE svg PUBLIC "-//W3C//DTD SVG 1.1//EN" "http://www.w3.org/Graphics/SVG/1.1/DTD/svg11.dtd">
<svg  version="1.1" xmlns="http://www.w3.org/2000/svg" xmlns:xlink="http://www.w3.org/1999/xlink" x="0px" y="0px" width="512px"
	 height="512px" viewBox="0 0 512 512" style="enable-background:new 0 0 512 512;" xml:space="preserve"><g id="afcae5a789ccd549f9c6e2a2f81868d7"><path style="display: inline; fill-rule: evenodd; clip-rule: evenodd;" d="M493.618,381.28
		c-11.053-101.408-70.752-80.929-105.332-67.04c27.646-111.228-12.576-230.5-92.853-271.501l-20.548-32.184
		c-5.985-9.38-17.542-12.826-25.678-7.637c-8.128,5.186-9.876,17.119-3.882,26.508l17.546,27.494
		c0.123,0.694,0.322,1.367,0.605,2.002c34.275,76.001-9.74,186.286-98.102,245.845c-1.117,0.754-2.091,1.664-2.976,2.629
		c-19.68-13.647-83.286-93.966-133.046,19.032C4.789,382.216,18.598,446.876,71.795,476.639
		c53.201,29.759,116.681,8.462,150.211-42.441c56.114-85.182-2.941-107.452-38.437-118.793
		c83.574-61.726,128.382-164.091,109.421-244.342c0.487-0.322,0.897-0.724,1.338-1.092
		c69.439,40.587,102.208,149.141,73.161,247.666c-0.382,1.295-0.551,2.611-0.618,3.915c-23.841,2.036-124.072-19.341-90.39,99.47
		c16.628,58.649,68.479,99.672,128.44,88.7C464.884,498.748,500.226,441.877,493.618,381.28z M85.446,322.216
		c-4.635,14.104,3.509,29.445-8.39,25.538c-11.895-3.903-17.788-18.507-13.157-32.612c4.631-14.104,18.029-22.367,29.928-18.464
		C105.723,300.584,90.073,308.115,85.446,322.216z M320.468,374.875c-4.631,14.104,3.514,29.445-8.382,25.538
		c-11.903-3.902-17.791-18.507-13.165-32.611c4.632-14.104,18.033-22.368,29.929-18.465
		C340.748,353.244,325.099,360.774,320.468,374.875z"></path></g></svg>