<?xml version="1.0" encoding="iso-8859-1"?>
<!DOCTYPE svg PUBLIC "-//W3C//DTD SVG 1.1//EN" "http://www.w3.org/Graphics/SVG/1.1/DTD/svg11.dtd">
<svg  version="1.1" xmlns="http://www.w3.org/2000/svg" xmlns:xlink="http://www.w3.org/1999/xlink" x="0px" y="0px" width="512px"
	 height="512px" viewBox="0 0 512 512" enable-background="new 0 0 512 512" xml:space="preserve"><g id="5151e0c8492e5103c096af88a528ea34"><path display="inline" d="M511.5,256C511.5,115.119,396.886,0.5,256,0.5C115.116,0.5,0.5,115.119,0.5,256
		c0,0.133,0.005,0.375,0.019,0.698C0.899,397.257,115.352,511.5,256,511.5s255.101-114.243,255.48-254.802
		C511.495,256.375,511.5,256.133,511.5,256z M256,24.833c118.891,0,217.075,90.233,229.75,205.812l-0.902,0.58
		c0.446,0.699,0.793,1.35,1.188,2.02c0.732,7.442,1.122,14.98,1.127,22.603c-0.3,3.327-9.976,79.235-231.162,79.235
		c-221.188,0-230.865-75.908-231.162-79.235c0.01-16.486,1.787-32.564,5.095-48.086l8.978,9.534
		c5.14-4.838,11.254-9.439,18.171-13.673l-7.623-12.452c-7.086,4.339-13.419,9.072-18.939,14.063
		C53.727,102.115,145.979,24.833,256,24.833z M256,487.167c-109.982,0-202.209-77.23-225.457-180.29
		c31.289,26.139,95.145,52.54,225.457,52.54s194.168-26.401,225.454-52.54C458.209,409.937,365.984,487.167,256,487.167z
		 M338.011,170.116c-7.689-0.855-15.735-1.592-23.915-2.182l1.046-14.562c8.374,0.604,16.615,1.354,24.49,2.239L338.011,170.116z
		 M430.473,191.426c-6.877-2.804-14.367-5.423-22.261-7.78l4.182-13.992c8.341,2.495,16.278,5.271,23.593,8.255L430.473,191.426z
		 M470.171,214.667c-5.37-4.648-11.672-9.054-18.72-13.098l7.267-12.661c7.86,4.506,14.928,9.458,21.006,14.714L470.171,214.667z
		 M290.062,166.608c-7.761-0.304-15.868-0.499-24.101-0.589l0.152-14.6c8.374,0.09,16.62,0.29,24.519,0.599L290.062,166.608z
		 M385.209,177.729c-7.438-1.635-15.327-3.123-23.454-4.416l2.296-14.419c8.407,1.34,16.581,2.88,24.295,4.577L385.209,177.729z
		 M77.753,193.014l-5.784-13.402c7.281-3.142,15.18-6.06,23.478-8.678l4.392,13.925C92.011,187.325,84.581,190.072,77.753,193.014z
		 M122.734,178.646l-3.298-14.22c7.742-1.796,15.905-3.422,24.262-4.833l2.429,14.4C138.06,175.353,130.189,176.921,122.734,178.646
		z M169.831,170.596l-1.725-14.496c7.908-0.941,16.142-1.749,24.476-2.405l1.146,14.553
		C185.585,168.89,177.546,169.678,169.831,170.596z M217.742,166.784l-0.651-14.581c7.942-0.356,16.188-0.599,24.509-0.727
		l0.228,14.6C233.644,166.2,225.541,166.437,217.742,166.784z"></path></g></svg>