<?xml version="1.0" encoding="iso-8859-1"?>
<!DOCTYPE svg PUBLIC "-//W3C//DTD SVG 1.1//EN" "http://www.w3.org/Graphics/SVG/1.1/DTD/svg11.dtd">
<svg  version="1.1" xmlns="http://www.w3.org/2000/svg" xmlns:xlink="http://www.w3.org/1999/xlink" x="0px" y="0px" width="512px"
	 height="512px" viewBox="0 0 512 512" style="enable-background:new 0 0 512 512;" xml:space="preserve"><g id="afcae5a789ccd549f9c6e2a2f818abc6"><path style="display: inline;" d="M475.111,465.348c9.952-13.435,12.84-33.062,12.84-33.062s1.702-40.102,9.117-94.477
		c5.598-41.063,19.862-91.059,8.44-133.664c-21.755-81.272-61.853-129.93-90.535-155.939c-1.995-2.305-4.073-4.544-6.246-6.713
		C337.477-29.762,197.479-5.739,96.716,95.025C-4.081,195.817-28.07,335.79,43.18,407.04c2.95,2.945,6.057,5.672,9.233,8.296
		c21.602,25.067,62.228,61.046,129.698,82.491c78.831,25.076,123.395,9.443,176.533,1.83c50.665-7.25,87.875-11.547,87.875-11.547
		S464.378,479.811,475.111,465.348z M107.965,106.278c92.15-92.154,219.692-114.033,284.854-48.876
		c65.178,65.182,43.295,192.724-48.855,284.874C251.788,434.45,124.242,456.333,59.061,391.16
		C-6.097,325.995,15.79,198.457,107.965,106.278z M235.379,219.229c-0.083-0.083-0.145-0.169-0.178-0.248
		c-0.582-1.363,6.676-9.721,16.05-18.59L372.386,86.201c8.093-7.626,17.482-8.973,22.605-3.854c0.826,0.826,1.537,1.818,2.119,2.982
		l20.99,81.285c0.339,10.452-8.469,20.9-19.549,23.226l-143.235,30.348C244.855,222.401,236.742,220.592,235.379,219.229z
		 M254.721,222.472l141.254-18.462c4.692-0.616,8.369,0.496,10.725,2.846c3.131,3.136,3.892,8.481,1.479,14.856l-49.665,89.295
		c-7.478,10.349-19.201,13.872-26.01,7.783l-88.109-78.298c-2.141-1.896-4.106-3.755-5.784-5.428
		c-3.677-3.677-5.944-6.49-5.527-7.023C233.71,227.243,243.798,223.921,254.721,222.472z M139.255,91.807l93.422-50.917
		c6.366-2.317,11.7-1.496,14.848,1.652c2.393,2.392,3.528,6.119,2.908,10.84l-18.475,141.175c-1.429,10.952-6.7,20.751-8.295,21.792
		c-1.313,0.859-5.816-2.202-10.758-7.139c-1.041-1.049-2.115-2.186-3.173-3.379l-78.294-88.102
		C125.349,110.917,128.86,99.238,139.255,91.807z M264.908,51.048c2.322-11.08,12.699-19.722,23.061-19.173l77.005,21.082
		c1.128,0.574,2.087,1.272,2.893,2.078c5.176,5.177,3.816,14.674-3.859,22.792l-114.193,121.13
		c-8.85,9.394-17.628,16.103-18.293,15.921c-0.017-0.004-0.033-0.017-0.05-0.029c-0.595-0.595,0.776-9.626,3.069-20.462
		L264.908,51.048z M312.871,356.644l-89.291,49.665c-6.403,2.434-11.753,1.682-14.889-1.458c-2.347-2.347-3.462-6.027-2.842-10.712
		l18.458-141.258c1.454-10.923,4.8-21.036,5.572-21.643c0.554-0.434,3.393,1.872,7.094,5.573c1.669,1.665,3.503,3.61,5.387,5.717
		l78.294,88.102C326.72,337.476,323.225,349.171,312.871,356.644z M196.661,228.044l-141.03,18.45
		c-4.692,0.604-8.395-0.521-10.766-2.892c-3.14-3.144-3.933-8.481-1.553-14.864l50.292-91.365
		c7.453-10.37,19.152-13.864,25.989-7.804l88.106,78.298c0.479,0.43,0.941,0.864,1.388,1.31c5.875,5.875,8.726,12.865,8.304,13.997
		C216.929,224.393,207.584,226.594,196.661,228.044z M168.441,416.314l-79.203-19.561c-1.219-0.596-2.26-1.326-3.115-2.186
		c-5.061-5.057-3.734-14.307,3.854-22.329L204.54,250.704c8.895-9.407,18.718-16.81,19.792-17.049
		c0.066-0.008,0.124,0.008,0.17,0.054c0.789,0.789-0.252,9.295-2.442,19.734l-30.355,143.241
		C189.354,407.796,178.868,416.633,168.441,416.314z M218.681,232.717c0.529,0.533-6.478,8.027-15.739,16.748L81.418,364.047
		c-8.18,7.705-17.764,9.056-22.985,3.838c-0.777-0.776-1.459-1.698-2.024-2.768l-22.516-81.194
		c-0.495-10.373,8.18-20.78,19.28-23.131l143.059-30.298c9.94-2.103,18.31-2.272,20.058-0.524c0.206,0.207,0.317,0.438,0.334,0.694
		c0,0,0,0,1.459,1.462c0.569,0.57,0.569,0.57,0.569,0.57C218.66,232.696,218.673,232.708,218.681,232.717z"></path></g></svg>