<?xml version="1.0" encoding="iso-8859-1"?>
<!DOCTYPE svg PUBLIC "-//W3C//DTD SVG 1.1//EN" "http://www.w3.org/Graphics/SVG/1.1/DTD/svg11.dtd">
<svg  version="1.1" xmlns="http://www.w3.org/2000/svg" xmlns:xlink="http://www.w3.org/1999/xlink" x="0px" y="0px" width="512px"
	 height="512px" viewBox="0 0 512 512" style="enable-background:new 0 0 512 512;" xml:space="preserve"><g id="afcae5a789ccd549f9c6e2a2f8188b6a"><path style="display: inline;" d="M427.371,0.5c113.553,118.251,112.181,306.12-4.283,422.587
		C306.621,539.555,118.752,540.923,0.501,427.375c6.379-5.311,12.841-10.741,19.37-16.297
		c108.508,102.208,279.302,100.328,385.419-5.789c106.121-106.121,107.996-276.902,5.788-385.41
		C416.63,13.346,422.065,6.884,427.371,0.5z M39.075,394.619c57.471-49.744,119.981-107.909,183.811-171.734
		c63.82-63.825,121.989-126.344,171.733-183.806c90.893,98.59,88.552,252.738-7.128,348.417
		C291.821,483.174,137.669,485.511,39.075,394.619z M406.051,174.513c6.3,2.936,13.785,0.216,16.722-6.088
		c2.944-6.296,0.216-13.781-6.084-16.721c-6.301-2.94-37.182-11.124-40.117-4.82C373.627,153.18,399.751,171.573,406.051,174.513z
		 M331.31,220.781c6.301,2.94,13.786,0.216,16.726-6.088c2.937-6.296,0.208-13.781-6.088-16.721
		c-6.304-2.94-37.186-11.124-40.121-4.82C298.891,199.447,325.014,217.845,331.31,220.781z M391.816,281.287
		c6.3,2.936,13.785,0.212,16.717-6.088c2.944-6.297,0.217-13.782-6.079-16.718c-6.305-2.94-37.186-11.128-40.122-4.828
		C359.396,259.949,385.521,278.351,391.816,281.287z M278.896,296.69c4.907,4.915,12.874,4.915,17.79,0
		c4.915-4.916,4.915-12.879,0-17.795c-4.916-4.915-31.131-23.171-36.046-18.256C255.725,265.555,273.977,291.774,278.896,296.69z
		 M339.395,357.192c4.915,4.915,12.883,4.915,17.798,0c4.916-4.911,4.916-12.879,0-17.795c-4.915-4.915-31.139-23.171-36.054-18.256
		C316.228,326.058,334.479,352.281,339.395,357.192z M218.253,344.476c6.3-2.932,9.023-10.426,6.084-16.722
		c-2.937-6.304-21.333-32.424-27.63-29.483c-6.304,2.936,1.889,33.816,4.824,40.121
		C204.467,344.691,211.952,347.415,218.253,344.476z M254.415,422.027c6.3-2.936,9.024-10.43,6.084-16.726
		c-2.936-6.296-21.333-32.42-27.629-29.479c-6.305,2.932,1.884,33.817,4.823,40.117C240.63,422.243,248.115,424.963,254.415,422.027
		z M174.509,406.055c-2.936-6.3-21.333-32.42-27.629-29.479c-6.304,2.932,1.888,33.816,4.824,40.117
		c2.936,6.296,10.421,9.023,16.717,6.084C174.726,419.84,177.449,412.354,174.509,406.055z"></path></g></svg>