<?xml version="1.0" encoding="iso-8859-1"?>
<!DOCTYPE svg PUBLIC "-//W3C//DTD SVG 1.1//EN" "http://www.w3.org/Graphics/SVG/1.1/DTD/svg11.dtd">
<svg  version="1.1" xmlns="http://www.w3.org/2000/svg" xmlns:xlink="http://www.w3.org/1999/xlink" x="0px" y="0px" width="512px"
	 height="512px" viewBox="0 0 512 512" style="enable-background:new 0 0 512 512;" xml:space="preserve"><g id="afcae5a789ccd549f9c6e2a2f8187736"><path style="display: inline;" d="M320.954,418.008c4.647-8.575,15.351-11.754,23.917-7.11c3.99,2.157,6.75,5.653,8.157,9.61
		c46.201-54.618,64.341-114.701,64.341-114.701s17.645-78.498-32.719-119.021c-7.395-5.954-15.372-10.728-23.566-14.55
		c11.992-4.217,26.049-7.663,41.366-8.462c35.737-1.859,67.938,19.433,67.938,19.433s-22.101-37.97-62.54-40.838
		c-29.922-2.119-63.144,14.563-73.888,20.479c-0.26-0.063-0.528-0.125-0.788-0.188c10.603-8.609,48.334-40.759,60.028-71.225
		c11.569-30.073-12.06-58.751-12.06-58.751s5.243,32.421-15.031,60.602c-14.932,20.76-42.693,39.385-57.6,48.471
		c2.307-30.223-3.049-62.679-17.135-95.473c-2.897-6.742-11.116-11.209-18.348-9.97c-7.24,1.239-10.753,7.717-7.855,14.462
		c13.224,30.776,17.716,61.196,14.688,89.313l-21.045-8.542c0,0-22.142-36.764-30.072-74.884c-6.9-33.18-6.863-56.163-6.863-56.163
		s-18.616,1.294-22.539,28.938c-4.522,32.02,12.703,78.803,12.703,78.803s-45.82-19.198-78.694-42.835
		c-26.974-19.399-42.165-44.108-42.165-44.108s10.074,46.102,29.926,65.371c12.001,11.653,38.184,26.132,54.886,34.758
		c-19.345,1.788-40.311,10.359-61.334,30.738c-0.381,0.373-0.741,0.746-1.118,1.118c1.667,0.339,3.316,0.842,4.882,1.692
		c8.571,4.644,11.757,15.35,7.11,23.921c-4.64,8.571-15.351,11.75-23.922,7.106c-4.263-2.308-7.189-6.122-8.483-10.431
		c-50.188,61.334-56.607,126.684-48.685,179.657c0.31-0.871,0.628-1.741,1.08-2.588c4.648-8.571,15.354-11.745,23.922-7.105
		c8.571,4.644,11.753,15.351,7.105,23.922c-4.639,8.567-15.35,11.749-23.917,7.102c-2.001-1.085-3.676-2.517-5.058-4.162
		c11.616,54.157,36.153,91.662,36.153,91.662s20.94,41.901,78.221,47.441c0.23-0.549,0.398-1.114,0.687-1.654
		c4.648-8.566,15.355-11.749,23.921-7.109c3.463,1.88,5.996,4.77,7.537,8.081c22.62-2.889,49.297-10.945,80.57-26.832
		c21.766-11.063,40.6-25.207,56.846-40.649c-1.172-0.343-2.332-0.804-3.45-1.411C319.497,437.281,316.314,426.575,320.954,418.008z
		 M97.314,257.684c-8.567-4.644-11.749-15.351-7.11-23.918c4.644-8.575,15.354-11.753,23.922-7.11
		c8.571,4.648,11.753,15.351,7.11,23.922C116.593,259.145,105.882,262.331,97.314,257.684z M296.316,172.088
		c8.567,4.648,11.754,15.354,7.11,23.922c-4.64,8.567-15.351,11.749-23.922,7.105c-8.567-4.639-11.754-15.354-7.105-23.917
		C277.038,170.631,287.749,167.449,296.316,172.088z M184.069,165.543c4.644-8.571,15.354-11.753,23.918-7.11
		c8.571,4.644,11.753,15.35,7.114,23.921c-4.648,8.567-15.355,11.75-23.926,7.106C182.608,184.821,179.426,174.11,184.069,165.543z
		 M130.042,324.763c-8.563-4.644-11.745-15.354-7.106-23.926c4.648-8.567,15.354-11.745,23.922-7.102
		c8.571,4.644,11.753,15.351,7.11,23.917C149.324,326.224,138.617,329.406,130.042,324.763z M176.938,256.427
		c-8.563-4.648-11.749-15.354-7.105-23.926c4.644-8.567,15.354-11.745,23.922-7.106c8.571,4.648,11.753,15.354,7.109,23.926
		C196.221,257.885,185.514,261.066,176.938,256.427z M108.251,456.04c-8.567-4.644-11.749-15.351-7.105-23.921
		c4.644-8.571,15.35-11.75,23.917-7.106c8.571,4.644,11.753,15.351,7.114,23.922C127.53,457.497,116.823,460.684,108.251,456.04z
		 M147.201,393.266c-8.567-4.644-11.75-15.354-7.11-23.918c4.648-8.575,15.354-11.753,23.921-7.109
		c8.571,4.644,11.753,15.351,7.11,23.917C166.479,394.727,155.772,397.909,147.201,393.266z M215.554,321.752
		c-8.567-4.64-11.75-15.351-7.11-23.917c4.647-8.571,15.354-11.75,23.926-7.11c8.567,4.644,11.749,15.351,7.105,23.922
		C234.831,323.213,224.125,326.396,215.554,321.752z M267.692,271.062c-8.566-4.644-11.749-15.354-7.109-23.922
		c4.647-8.567,15.354-11.749,23.921-7.105c8.571,4.644,11.754,15.346,7.11,23.917C286.971,272.522,276.26,275.705,267.692,271.062z
		 M207.271,455.416c-8.566-4.639-11.749-15.354-7.109-23.917c4.644-8.567,15.354-11.749,23.922-7.11
		c8.571,4.644,11.753,15.351,7.105,23.922C226.549,456.878,215.838,460.06,207.271,455.416z M246.217,392.642
		c-8.567-4.644-11.746-15.351-7.106-23.917c4.644-8.571,15.354-11.75,23.918-7.11c8.575,4.644,11.758,15.354,7.109,23.926
		C265.498,394.103,254.787,397.285,246.217,392.642z M321.243,354.35c-8.567-4.64-11.754-15.351-7.11-23.918
		c4.644-8.575,15.354-11.749,23.922-7.109c8.567,4.647,11.754,15.351,7.105,23.926C340.521,355.811,329.814,358.997,321.243,354.35z
		 M366.708,270.438c-8.567-4.644-11.75-15.351-7.106-23.917c4.64-8.571,15.351-11.753,23.918-7.11
		c8.575,4.644,11.758,15.354,7.109,23.926C385.99,271.898,375.279,275.081,366.708,270.438z"></path></g></svg>